TITLE ""
FILE "Disc3Track10.mp3" MP3
  TRACK 01 AUDIO
    TITLE "Disc3Track10_01"
    INDEX 01 00:00:00
  TRACK 02 AUDIO
    TITLE "Disc3Track10_02"
    INDEX 01 00:01:02
  TRACK 03 AUDIO
    TITLE "Disc3Track10_03"
    INDEX 01 00:03:34
  TRACK 04 AUDIO
    TITLE "Disc3Track10_04"
    INDEX 01 00:04:45
  TRACK 05 AUDIO
    TITLE "Disc3Track10_05"
    INDEX 01 00:09:13
  TRACK 06 AUDIO
    TITLE "Disc3Track10_06"
    INDEX 01 00:09:43
  TRACK 07 AUDIO
    TITLE "Disc3Track10_07"
    INDEX 01 00:10:60
  TRACK 08 AUDIO
    TITLE "Disc3Track10_08"
    INDEX 01 00:14:44
  TRACK 09 AUDIO
    TITLE "Disc3Track10_09"
    INDEX 01 00:15:59
  TRACK 10 AUDIO
    TITLE "Disc3Track10_10"
    INDEX 01 00:20:15
  TRACK 11 AUDIO
    TITLE "Disc3Track10_11"
    INDEX 01 00:20:44
  TRACK 12 AUDIO
    TITLE "Disc3Track10_12"
    INDEX 01 00:21:54
  TRACK 13 AUDIO
    TITLE "Disc3Track10_13"
    INDEX 01 00:22:67
  TRACK 14 AUDIO
    TITLE "Disc3Track10_14"
    INDEX 01 00:23:74
  TRACK 15 AUDIO
    TITLE "Disc3Track10_15"
    INDEX 01 00:30:21
  TRACK 16 AUDIO
    TITLE "Disc3Track10_16"
    INDEX 01 00:30:51
  TRACK 17 AUDIO
    TITLE "Disc3Track10_17"
    INDEX 01 00:31:66
  TRACK 18 AUDIO
    TITLE "Disc3Track10_18"
    INDEX 01 00:35:34
  TRACK 19 AUDIO
    TITLE "Disc3Track10_19"
    INDEX 01 00:36:47
  TRACK 20 AUDIO
    TITLE "Disc3Track10_20"
    INDEX 01 00:37:09
  TRACK 21 AUDIO
    TITLE "Disc3Track10_21"
    INDEX 01 00:38:15
  TRACK 22 AUDIO
    TITLE "Disc3Track10_22"
    INDEX 01 00:39:22
  TRACK 23 AUDIO
    TITLE "Disc3Track10_23"
    INDEX 01 00:40:27
  TRACK 24 AUDIO
    TITLE "Disc3Track10_24"
    INDEX 01 00:43:49
  TRACK 25 AUDIO
    TITLE "Disc3Track10_25"
    INDEX 01 00:44:06
  TRACK 26 AUDIO
    TITLE "Disc3Track10_26"
    INDEX 01 00:45:19
  TRACK 27 AUDIO
    TITLE "Disc3Track10_27"
    INDEX 01 00:47:12
  TRACK 28 AUDIO
    TITLE "Disc3Track10_28"
    INDEX 01 00:48:27
  TRACK 29 AUDIO
    TITLE "Disc3Track10_29"
    INDEX 01 00:48:66
  TRACK 30 AUDIO
    TITLE "Disc3Track10_30"
    INDEX 01 00:49:66
  TRACK 31 AUDIO
    TITLE "Disc3Track10_31"
    INDEX 01 00:50:73
  TRACK 32 AUDIO
    TITLE "Disc3Track10_32"
    INDEX 01 00:51:72
  TRACK 33 AUDIO
    TITLE "Disc3Track10_33"
    INDEX 01 00:56:25
  TRACK 34 AUDIO
    TITLE "Disc3Track10_34"
    INDEX 01 00:56:54
  TRACK 35 AUDIO
    TITLE "Disc3Track10_35"
    INDEX 01 00:57:65
  TRACK 36 AUDIO
    TITLE "Disc3Track10_36"
    INDEX 01 00:58:72
  TRACK 37 AUDIO
    TITLE "Disc3Track10_37"
    INDEX 01 01:00:12
  TRACK 38 AUDIO
    TITLE "Disc3Track10_38"
    INDEX 01 01:00:48
  TRACK 39 AUDIO
    TITLE "Disc3Track10_39"
    INDEX 01 01:01:67
  TRACK 40 AUDIO
    TITLE "Disc3Track10_40"
    INDEX 01 01:06:25
  TRACK 41 AUDIO
    TITLE "Disc3Track10_41"
    INDEX 01 01:07:44
  TRACK 42 AUDIO
    TITLE "Disc3Track10_42"
    INDEX 01 01:13:31
  TRACK 43 AUDIO
    TITLE "Disc3Track10_43"
    INDEX 01 01:13:58
  TRACK 44 AUDIO
    TITLE "Disc3Track10_44"
    INDEX 01 01:15:06
  TRACK 45 AUDIO
    TITLE "Disc3Track10_45"
    INDEX 01 01:17:07
  TRACK 46 AUDIO
    TITLE "Disc3Track10_46"
    INDEX 01 01:18:30
  TRACK 47 AUDIO
    TITLE "Disc3Track10_47"
    INDEX 01 01:23:12
  TRACK 48 AUDIO
    TITLE "Disc3Track10_48"
    INDEX 01 01:23:45
  TRACK 49 AUDIO
    TITLE "Disc3Track10_49"
    INDEX 01 01:24:74
  TRACK 50 AUDIO
    TITLE "Disc3Track10_50"
    INDEX 01 01:26:71
  TRACK 51 AUDIO
    TITLE "Disc3Track10_51"
    INDEX 01 01:28:26
  TRACK 52 AUDIO
    TITLE "Disc3Track10_52"
    INDEX 01 01:28:64
  TRACK 53 AUDIO
    TITLE "Disc3Track10_53"
    INDEX 01 01:29:73
  TRACK 54 AUDIO
    TITLE "Disc3Track10_54"
    INDEX 01 01:31:54
  TRACK 55 AUDIO
    TITLE "Disc3Track10_55"
    INDEX 01 01:32:61
  TRACK 56 AUDIO
    TITLE "Disc3Track10_56"
    INDEX 01 01:35:07
